# xmcd CD database file
#
# Track frame offsets:
#	150
#	17637
#	37058
#	55530
#	70690
#	93670
#	115341
#	134386
#	159811
#
# Disc length: 2436 seconds
#
# Revision: 0
# Processed by: cddbd v1.5PL3 Copyright (c) Steve Scherf et al.
# Submitted via: CDex 1.40Beta9
#
DISCID=6e098209
DTITLE=Joe Ely - Happy Songs From Rattlesnake Gulch Disk 2
DYEAR=1900
DGENRE=Country
TTITLE0=Back to my Ole Mole Hill
TTITLE1=Theres Never Been
TTITLE2=Love is the Beating of Hearts
TTITLE3=She Collected
TTITLE4=The River Fever
TTITLE5=The Look of Love
TTITLE6=My My
TTITLE7=Heat and Soul
TTITLE8=Oh Girl, Take Me Back
EXTD=ID3G: 2
EXTT0=
EXTT1=
EXTT2=
EXTT3=
EXTT4=
EXTT5=
EXTT6=
EXTT7=
EXTT8=
PLAYORDER=
